<?xml version="1.0" ?><!DOCTYPE svg  PUBLIC '-//W3C//DTD SVG 1.1//EN'  'http://www.w3.org/Graphics/SVG/1.1/DTD/svg11.dtd'><svg height="512px" style="enable-background:new 0 0 512 512;" version="1.1" viewBox="0 0 512 512" width="512px" xml:space="preserve" xmlns="http://www.w3.org/2000/svg" xmlns:xlink="http://www.w3.org/1999/xlink"><style type="text/css">
<![CDATA[
	.st0{display:inline;}
	.st1{fill:none;stroke:#000000;stroke-width:16;stroke-linecap:round;stroke-linejoin:round;stroke-miterlimit:10;}
	.st2{display:none;}
]]>
</style><g class="st2" id="Layer"><g class="st0"><polyline class="st1" points="89,386 424,386 424,385.999   "/><polyline class="st1" points="89,257 424,257 424,256.999   "/><polyline class="st1" points="89,127 424,127 424,126.999   "/></g></g><g id="Layer_copy"><g><path d="M424,394H89c-4.418,0-8-3.582-8-8s3.582-8,8-8h335c4.418,0,8,3.582,8,8S428.418,394,424,394z"/></g><g><path d="M424,265H89c-4.418,0-8-3.582-8-8c0-4.418,3.582-8,8-8h335c4.418,0,8,3.582,8,8C432,261.418,428.418,265,424,265z"/></g><g><path d="M424,135H89c-4.418,0-8-3.582-8-8s3.582-8,8-8h335c4.418,0,8,3.582,8,8S428.418,135,424,135z"/></g></g></svg>